<?xml version="1.0" encoding="UTF-8"?>
<svg width="141px" height="141px" viewBox="0 0 141 141" version="1.1" xmlns="http://www.w3.org/2000/svg" xmlns:xlink="http://www.w3.org/1999/xlink">
    <title>89550A8F-ED85-4B5E-87CA-8F14C4CFB316</title>
    <g id="03-Control-panel-" stroke="none" stroke-width="1" fill="none" fill-rule="evenodd">
        <g id="Panel" transform="translate(-1202.000000, -338.000000)">
            <g id="Group-5" transform="translate(1202.618083, 338.500000)">
                <path d="M69.75,139.5 C50.625,139.5 35.851,131.157 28.746,126.184 L30.754,123.316 C37.521,128.054 51.585,136 69.75,136 C106.28,136 136,106.28 136,69.75 C136,33.22 106.28,3.5 69.75,3.5 C33.22,3.5 3.5,33.22 3.5,69.75 C3.5,87.108 10.501,105.071 20.921,114.449 L18.579,117.051 C7.467,107.049 0,88.04 0,69.75 C0,31.29 31.29,0 69.75,0 C108.21,0 139.5,31.29 139.5,69.75 C139.5,108.21 108.21,139.5 69.75,139.5" id="Fill-4" fill="#FFFFFF"></path>
                <path d="M101.4307,38.3535 L17.4987,38.3535 L17.4987,26.1135 C17.4987,24.1805 19.0637,22.6165 20.9957,22.6165 L97.9337,22.6165 C99.8667,22.6165 101.4307,24.1805 101.4307,26.1135 L101.4307,38.3535 Z" id="Fill-6" fill="#FF7F45"></path>
                <path d="M20.9961,83.3145 C20.0321,83.3145 19.2471,82.5295 19.2471,81.5655 L19.2471,26.1135 C19.2471,25.1505 20.0321,24.3655 20.9961,24.3655 L97.9341,24.3655 C98.8971,24.3655 99.6831,25.1505 99.6831,26.1135 L99.6831,72.3745 C99.6831,72.3745 103.2661,72.3565 103.1801,72.3745 L103.1801,26.1135 C103.1801,23.2205 100.8261,20.8675 97.9341,20.8675 L20.9961,20.8675 C18.1031,20.8675 15.7501,23.2205 15.7501,26.1135 L15.7501,81.5655 C15.7501,84.4575 18.1031,86.8115 20.9961,86.8115 L43.5601,86.8115 C43.1571,85.6795 42.8441,84.5095 42.6001,83.3145 L20.9961,83.3145 Z" id="Fill-8" fill="#FFFFFF"></path>
                <path d="M96.3623,71.5752 L81.6743,71.5752 C82.1713,72.7082 82.5873,73.8762 82.9213,75.0722 L96.3623,75.0722 C96.3623,75.0722 96.3693,71.5392 96.3623,71.5752" id="Fill-10" fill="#FFFFFF"></path>
                <path d="M118.917,71.5762 L93.494,71.5762 C93.458,71.3982 93.395,75.5632 93.494,75.0722 L118.917,75.0722 C119.881,75.0722 120.666,75.8572 120.666,76.8202 L120.666,111.2902 C120.666,112.2532 119.881,113.0392 118.917,113.0392 L83.945,113.0392 C82.981,113.0392 82.196,112.2532 82.196,111.2902 L82.196,94.5362 C81.134,95.6862 79.951,96.7152 78.699,97.6612 L78.699,111.2912 C78.699,114.1832 81.053,116.5372 83.945,116.5372 L118.917,116.5372 C121.81,116.5372 124.163,114.1832 124.163,111.2912 L124.163,76.8222 C124.163,73.9302 121.81,71.5762 118.917,71.5762" id="Fill-12" fill="#FFFFFF"></path>
                <path d="M51.2188,79.0684 L47.7218,79.0684 C47.7218,72.3184 53.2128,66.8284 59.9618,66.8284 L59.9618,70.3254 C55.1418,70.3254 51.2188,74.2474 51.2188,79.0684" id="Fill-14" fill="#5FBAD9"></path>
                <path d="M24.3633,129.2803 C19.6143,129.2803 15.7503,125.4163 15.7503,120.6673 C15.7503,118.2053 16.8053,115.8563 18.6473,114.2233 L42.8823,93.0733 L45.2023,95.6883 L20.9673,116.8393 C19.8753,117.8073 19.2473,119.2033 19.2473,120.6673 C19.2473,123.4893 21.5413,125.7833 24.3633,125.7833 C25.8253,125.7833 27.2203,125.1553 28.1913,124.0623 L49.8713,99.8283 L52.4863,102.1483 L30.8073,126.3833 C29.1743,128.2243 26.8253,129.2803 24.3633,129.2803" id="Fill-16" fill="#5FBAD9"></path>
                <polygon id="Fill-18" fill="#FFFFFF" points="22.7446 31.359 26.2416 31.359 26.2416 27.862 22.7446 27.862"></polygon>
                <polygon id="Fill-20" fill="#FFFFFF" points="29.7386 31.359 33.2366 31.359 33.2366 27.862 29.7386 27.862"></polygon>
                <polygon id="Fill-21" fill="#FFFFFF" points="36.7336 31.359 40.2306 31.359 40.2306 27.862 36.7336 27.862"></polygon>
                <polygon id="Fill-22" fill="#FFFFFF" points="41.794 76.8223 22.744 76.8223 22.744 41.8503 64.711 41.8503 64.711 57.5883 61.214 57.5883 61.214 45.3473 26.241 45.3473 26.241 73.3253 41.794 73.3253"></polygon>
                <polygon id="Fill-23" fill="#FFFFFF" points="69.7446 45.816 95.7506 45.816 95.7506 42.319 69.7446 42.319"></polygon>
                <polygon id="Fill-24" fill="#FFFFFF" points="85.4146 51.816 95.7496 51.816 95.7496 48.319 85.4146 48.319"></polygon>
                <polygon id="Fill-25" fill="#FFFFFF" points="29.7386 52.342 33.2366 52.342 33.2366 48.845 29.7386 48.845"></polygon>
                <polygon id="Fill-26" fill="#FFFFFF" points="29.7386 59.337 33.2366 59.337 33.2366 55.84 29.7386 55.84"></polygon>
                <polygon id="Fill-27" fill="#FFFFFF" points="29.7386 66.331 33.2366 66.331 33.2366 62.834 29.7386 62.834"></polygon>
                <path d="M40.7422,106.7598 L38.2702,104.2878 L40.7422,101.8158 L43.2152,104.2878 L40.7422,106.7598 Z M35.7962,111.7068 L33.3232,109.2348 L35.7962,106.7618 L38.2682,109.2348 L35.7962,111.7068 Z M30.9742,116.5288 L28.5032,114.0558 L30.8502,111.7068 L33.3232,114.1798 L30.9742,116.5288 Z" id="Fill-28" fill="#5FBAD9"></path>
                <path d="M62.962,101.8564 C52.051,101.8564 43.174,92.9794 43.174,82.0684 C43.174,71.1574 52.051,62.2804 62.962,62.2804 C65.154,62.2804 67.306,62.6364 69.359,63.3364 L73.202,65.1334 C79.183,68.7544 82.75,75.0814 82.75,82.0684 C82.75,92.9794 73.873,101.8564 62.962,101.8564 M76.267,62.5654 C74.75,61.7504 71.725,59.8774 69.349,59.3474 C67.248,58.8784 65.138,58.4574 62.962,58.4574 C49.942,58.4574 39.351,69.0484 39.351,82.0684 C39.351,95.0874 49.942,105.6794 62.962,105.6794 C75.982,105.6794 86.573,95.0874 86.573,82.0684 C86.573,74.2874 82.654,66.9394 76.267,62.5654" id="Fill-29" fill="#5FBAD9"></path>
                <path d="M103.1796,104.046 L106.6766,104.046 L106.6766,93.555 L103.1796,93.555 L103.1796,104.046 Z M110.1736,104.046 L113.6706,104.046 L113.6706,83.063 L110.1736,83.063 L110.1736,104.046 Z M89.1916,104.046 L92.6886,104.046 L92.6886,93.555 L89.1916,93.555 L89.1916,104.046 Z M96.1856,104.046 L99.6826,104.046 L99.6826,86.56 L96.1856,86.56 L96.1856,104.046 Z M92.6886,83.063 L92.6886,90.057 L85.6936,90.057 L85.6936,107.543 L117.1676,107.543 L117.1676,79.565 L106.6766,79.565 L106.6766,90.057 L103.1796,90.057 L103.1796,83.063 L92.6886,83.063 Z" id="Fill-30" fill="#FF7F45"></path>
            </g>
        </g>
    </g>
</svg>